<svg viewBox="0 0 54 619" fill="none" xmlns="http://www.w3.org/2000/svg">
<g filter="url(#filter0_d)">
<g clip-path="url(#clip0)">
<path d="M4.48838 119.18L26.5233 136.222L48.5626 119.174L48.5803 237.501L26.4752 254.608L4.50616 237.617L4.48838 119.18Z" fill="#4F686C" className="epoch"
                onClick={() => this.changeEpoch(0)}/>
<path d="M48.1099 237.355L26.4751 254.098L4.9765 237.464L4.95887 120.054L25.8648 136.222L26.5234 136.739L27.1913 136.222L48.0923 120.047L48.1099 237.355ZM49.0507 237.654L49.0328 118.293L26.5232 135.713L4.01786 118.3L4.03579 237.77L26.4753 255.125L49.0507 237.654Z" fill="#10363C"/>
<path d="M7.12012 191.051V190.436C7.55957 190.407 7.82812 190.363 7.92578 190.304C8.02832 190.246 8.26025 189.984 8.62158 189.521L11.0898 186.232C10.3184 184.879 9.70068 183.842 9.23682 183.119C8.77783 182.396 8.43359 181.959 8.2041 181.808C8.08203 181.725 7.93311 181.684 7.75732 181.684C7.6499 181.684 7.49121 181.701 7.28125 181.735L7.21533 181.134L9.95459 180.585C10.2524 180.8 10.4917 181.027 10.6724 181.266C10.8579 181.505 11.2021 182.089 11.7051 183.017L12.4814 184.445L14.2759 181.837C14.5835 181.393 14.813 181.039 14.9644 180.775C15.2329 180.814 15.4795 180.834 15.7041 180.834C15.9824 180.834 16.3071 180.814 16.6782 180.775V181.376C16.2681 181.405 16.0142 181.449 15.9165 181.508C15.7847 181.581 15.5503 181.835 15.2134 182.27L12.9429 185.236L13.4263 186.115C14.2661 187.638 14.8545 188.664 15.1914 189.191C15.6406 189.884 15.9067 190.26 15.9897 190.319C16.0776 190.377 16.3071 190.417 16.6782 190.436V191.051C16.1216 191.017 15.5918 191 15.0889 191C14.6396 191 14.2002 191.017 13.7705 191.051C13.585 190.749 13.3286 190.299 13.0015 189.704L11.5439 187.038L10.1084 189.103C9.9375 189.362 9.53467 190.011 8.8999 191.051C8.51904 191.017 8.23584 191 8.05029 191C7.85986 191 7.5498 191.017 7.12012 191.051ZM17.0005 181.391V180.775C17.9282 180.81 18.7778 180.827 19.5493 180.827C20.2329 180.827 20.9824 180.81 21.7979 180.775V181.391C21.2314 181.43 20.8921 181.476 20.7798 181.53C20.6724 181.579 20.6187 181.659 20.6187 181.771C20.6187 181.913 20.8237 182.489 21.2339 183.5L23.3066 188.554L24.9619 184.467C25.5723 182.963 25.8774 182.06 25.8774 181.757C25.8774 181.645 25.8237 181.564 25.7163 181.515C25.6138 181.466 25.2598 181.425 24.6543 181.391V180.775C25.5479 180.81 26.146 180.827 26.4487 180.827C26.7661 180.827 27.3325 180.81 28.1479 180.775V181.391C27.6548 181.439 27.3691 181.498 27.291 181.566C27.1738 181.659 26.8906 182.221 26.4414 183.251L24.1929 188.642C23.7339 189.706 23.4067 190.558 23.2114 191.198H22.1421L19.5493 184.987C18.9536 183.571 18.5361 182.611 18.2969 182.108C18.1602 181.811 18.0405 181.63 17.938 181.566C17.8403 181.498 17.5278 181.439 17.0005 181.391ZM29.1001 191.051V190.436C29.7739 190.402 30.1548 190.346 30.2427 190.268C30.3306 190.189 30.3843 189.997 30.4038 189.689C30.438 189.044 30.4551 187.843 30.4551 186.085C30.4551 185.412 30.4453 184.435 30.4258 183.156C30.416 182.282 30.3965 181.803 30.3672 181.72C30.3379 181.632 30.2866 181.569 30.2134 181.53C30.106 181.476 29.7349 181.43 29.1001 181.391V180.775C30.106 180.814 30.875 180.834 31.4072 180.834C32.3252 180.834 33.1553 180.814 33.8975 180.775V181.391C33.2334 181.43 32.8574 181.483 32.7695 181.552C32.6865 181.615 32.6328 181.767 32.6084 182.006C32.5645 182.475 32.5425 183.424 32.5425 184.855C32.5425 186.759 32.5498 188.087 32.5645 188.839C32.5791 189.586 32.623 190.031 32.6963 190.172C32.7256 190.236 32.7866 190.287 32.8794 190.326C32.9771 190.36 33.3164 190.397 33.8975 190.436V191.051L33.0332 191.029C32.4863 191.01 31.998 191 31.5684 191L29.1001 191.051ZM34.9448 191.051V190.436C35.6187 190.402 35.9995 190.346 36.0874 190.268C36.1753 190.189 36.229 189.997 36.2485 189.689C36.2827 189.044 36.2998 187.843 36.2998 186.085C36.2998 185.412 36.29 184.435 36.2705 183.156C36.2607 182.282 36.2412 181.803 36.2119 181.72C36.1826 181.632 36.1313 181.569 36.0581 181.53C35.9507 181.476 35.5796 181.43 34.9448 181.391V180.775C35.9507 180.814 36.7197 180.834 37.252 180.834C38.1699 180.834 39 180.814 39.7422 180.775V181.391C39.0781 181.43 38.7021 181.483 38.6143 181.552C38.5312 181.615 38.4775 181.767 38.4531 182.006C38.4092 182.475 38.3872 183.424 38.3872 184.855C38.3872 186.759 38.3945 188.087 38.4092 188.839C38.4238 189.586 38.4678 190.031 38.541 190.172C38.5703 190.236 38.6313 190.287 38.7241 190.326C38.8218 190.36 39.1611 190.397 39.7422 190.436V191.051L38.8779 191.029C38.3311 191.01 37.8428 191 37.4131 191L34.9448 191.051ZM40.7896 191.051V190.436C41.4634 190.402 41.8442 190.346 41.9321 190.268C42.02 190.189 42.0737 189.997 42.0933 189.689C42.1274 189.044 42.1445 187.843 42.1445 186.085C42.1445 185.412 42.1348 184.435 42.1152 183.156C42.1055 182.282 42.0859 181.803 42.0566 181.72C42.0273 181.632 41.9761 181.569 41.9028 181.53C41.7954 181.476 41.4243 181.43 40.7896 181.391V180.775C41.7954 180.814 42.5645 180.834 43.0967 180.834C44.0146 180.834 44.8447 180.814 45.5869 180.775V181.391C44.9229 181.43 44.5469 181.483 44.459 181.552C44.376 181.615 44.3223 181.767 44.2979 182.006C44.2539 182.475 44.2319 183.424 44.2319 184.855C44.2319 186.759 44.2393 188.087 44.2539 188.839C44.2686 189.586 44.3125 190.031 44.3857 190.172C44.415 190.236 44.4761 190.287 44.5688 190.326C44.6665 190.36 45.0059 190.397 45.5869 190.436V191.051L44.7227 191.029C44.1758 191.01 43.6875 191 43.2578 191L40.7896 191.051Z" fill="white"/>
</g>
<g clip-path="url(#clip1)">
<path d="M4.50608 237.475L26.541 254.517L48.5803 237.469L48.598 355.796L26.4929 372.903L4.52386 355.912L4.50608 237.475Z" fill="#4F686C" className="epoch"
                onClick={() => this.changeEpoch(1)}/>
<path d="M48.1276 355.651L26.4928 372.393L4.9942 355.759L4.97657 238.349L25.8825 254.518L26.5411 255.034L27.209 254.517L48.11 238.342L48.1276 355.651ZM49.0684 355.949L49.0505 236.588L26.5409 254.008L4.03556 236.595L4.05349 356.065L26.493 373.42L49.0684 355.949Z" fill="#10363C"/>
<path d="M5.45312 305.055V304.398C5.92188 304.367 6.20833 304.32 6.3125 304.258C6.42188 304.195 6.66927 303.917 7.05469 303.422L9.6875 299.914C8.86458 298.471 8.20573 297.365 7.71094 296.594C7.22135 295.823 6.85417 295.357 6.60938 295.195C6.47917 295.107 6.32031 295.062 6.13281 295.062C6.01823 295.062 5.84896 295.081 5.625 295.117L5.55469 294.477L8.47656 293.891C8.79427 294.12 9.04948 294.362 9.24219 294.617C9.4401 294.872 9.80729 295.495 10.3438 296.484L11.1719 298.008L13.0859 295.227C13.4141 294.753 13.6589 294.375 13.8203 294.094C14.1068 294.135 14.3698 294.156 14.6094 294.156C14.9062 294.156 15.2526 294.135 15.6484 294.094V294.734C15.2109 294.766 14.9401 294.812 14.8359 294.875C14.6953 294.953 14.4453 295.224 14.0859 295.688L11.6641 298.852L12.1797 299.789C13.0755 301.414 13.7031 302.508 14.0625 303.07C14.5417 303.81 14.8255 304.211 14.9141 304.273C15.0078 304.336 15.2526 304.378 15.6484 304.398V305.055C15.0547 305.018 14.4896 305 13.9531 305C13.474 305 13.0052 305.018 12.5469 305.055C12.349 304.732 12.0755 304.253 11.7266 303.617L10.1719 300.773L8.64062 302.977C8.45833 303.253 8.02865 303.945 7.35156 305.055C6.94531 305.018 6.64323 305 6.44531 305C6.24219 305 5.91146 305.018 5.45312 305.055ZM16.4453 305.055V304.398C17.1641 304.362 17.5703 304.302 17.6641 304.219C17.7578 304.135 17.8151 303.93 17.8359 303.602C17.8724 302.914 17.8906 301.633 17.8906 299.758C17.8906 299.039 17.8802 297.997 17.8594 296.633C17.849 295.701 17.8281 295.19 17.7969 295.102C17.7656 295.008 17.7109 294.94 17.6328 294.898C17.5182 294.841 17.1224 294.792 16.4453 294.75V294.094C17.5182 294.135 18.3385 294.156 18.9062 294.156C19.8854 294.156 20.7708 294.135 21.5625 294.094V294.75C20.8542 294.792 20.4531 294.849 20.3594 294.922C20.2708 294.99 20.2135 295.151 20.1875 295.406C20.1406 295.906 20.1172 296.919 20.1172 298.445C20.1172 300.477 20.125 301.893 20.1406 302.695C20.1562 303.492 20.2031 303.966 20.2812 304.117C20.3125 304.185 20.3776 304.24 20.4766 304.281C20.5807 304.318 20.9427 304.357 21.5625 304.398V305.055L20.6406 305.031C20.0573 305.01 19.5365 305 19.0781 305L16.4453 305.055ZM22.3594 305.055V304.398C22.8281 304.367 23.1146 304.32 23.2188 304.258C23.3281 304.195 23.5755 303.917 23.9609 303.422L26.5938 299.914C25.7708 298.471 25.112 297.365 24.6172 296.594C24.1276 295.823 23.7604 295.357 23.5156 295.195C23.3854 295.107 23.2266 295.062 23.0391 295.062C22.9245 295.062 22.7552 295.081 22.5312 295.117L22.4609 294.477L25.3828 293.891C25.7005 294.12 25.9557 294.362 26.1484 294.617C26.3464 294.872 26.7135 295.495 27.25 296.484L28.0781 298.008L29.9922 295.227C30.3203 294.753 30.5651 294.375 30.7266 294.094C31.013 294.135 31.276 294.156 31.5156 294.156C31.8125 294.156 32.1589 294.135 32.5547 294.094V294.734C32.1172 294.766 31.8464 294.812 31.7422 294.875C31.6016 294.953 31.3516 295.224 30.9922 295.688L28.5703 298.852L29.0859 299.789C29.9818 301.414 30.6094 302.508 30.9688 303.07C31.4479 303.81 31.7318 304.211 31.8203 304.273C31.9141 304.336 32.1589 304.378 32.5547 304.398V305.055C31.9609 305.018 31.3958 305 30.8594 305C30.3802 305 29.9115 305.018 29.4531 305.055C29.2552 304.732 28.9818 304.253 28.6328 303.617L27.0781 300.773L25.5469 302.977C25.3646 303.253 24.9349 303.945 24.2578 305.055C23.8516 305.018 23.5495 305 23.3516 305C23.1484 305 22.8177 305.018 22.3594 305.055ZM35.2578 302.039L35.1484 301.891C35.3568 301.443 35.5286 300.898 35.6641 300.258C36.6276 300.294 38.4167 300.312 41.0312 300.312C43.7396 300.312 45.5052 300.294 46.3281 300.258L46.4375 300.414C46.2448 300.888 46.0625 301.43 45.8906 302.039C45.0312 302.008 43.263 301.992 40.5859 301.992C37.8099 301.992 36.0339 302.008 35.2578 302.039ZM16.5703 324.055V323.398C17.0391 323.367 17.3255 323.32 17.4297 323.258C17.5391 323.195 17.7865 322.917 18.1719 322.422L20.8047 318.914C19.9818 317.471 19.3229 316.365 18.8281 315.594C18.3385 314.823 17.9714 314.357 17.7266 314.195C17.5964 314.107 17.4375 314.062 17.25 314.062C17.1354 314.062 16.9661 314.081 16.7422 314.117L16.6719 313.477L19.5938 312.891C19.9115 313.12 20.1667 313.362 20.3594 313.617C20.5573 313.872 20.9245 314.495 21.4609 315.484L22.2891 317.008L24.2031 314.227C24.5312 313.753 24.776 313.375 24.9375 313.094C25.224 313.135 25.487 313.156 25.7266 313.156C26.0234 313.156 26.3698 313.135 26.7656 313.094V313.734C26.3281 313.766 26.0573 313.812 25.9531 313.875C25.8125 313.953 25.5625 314.224 25.2031 314.688L22.7812 317.852L23.2969 318.789C24.1927 320.414 24.8203 321.508 25.1797 322.07C25.6589 322.81 25.9427 323.211 26.0312 323.273C26.125 323.336 26.3698 323.378 26.7656 323.398V324.055C26.1719 324.018 25.6068 324 25.0703 324C24.5911 324 24.1224 324.018 23.6641 324.055C23.4661 323.732 23.1927 323.253 22.8438 322.617L21.2891 319.773L19.7578 321.977C19.5755 322.253 19.1458 322.945 18.4688 324.055C18.0625 324.018 17.7604 324 17.5625 324C17.3594 324 17.0286 324.018 16.5703 324.055ZM27.2422 324.055V323.398C27.7109 323.367 27.9974 323.32 28.1016 323.258C28.2109 323.195 28.4583 322.917 28.8438 322.422L31.4766 318.914C30.6536 317.471 29.9948 316.365 29.5 315.594C29.0104 314.823 28.6432 314.357 28.3984 314.195C28.2682 314.107 28.1094 314.062 27.9219 314.062C27.8073 314.062 27.638 314.081 27.4141 314.117L27.3438 313.477L30.2656 312.891C30.5833 313.12 30.8385 313.362 31.0312 313.617C31.2292 313.872 31.5964 314.495 32.1328 315.484L32.9609 317.008L34.875 314.227C35.2031 313.753 35.4479 313.375 35.6094 313.094C35.8958 313.135 36.1589 313.156 36.3984 313.156C36.6953 313.156 37.0417 313.135 37.4375 313.094V313.734C37 313.766 36.7292 313.812 36.625 313.875C36.4844 313.953 36.2344 314.224 35.875 314.688L33.4531 317.852L33.9688 318.789C34.8646 320.414 35.4922 321.508 35.8516 322.07C36.3307 322.81 36.6146 323.211 36.7031 323.273C36.7969 323.336 37.0417 323.378 37.4375 323.398V324.055C36.8438 324.018 36.2786 324 35.7422 324C35.263 324 34.7943 324.018 34.3359 324.055C34.138 323.732 33.8646 323.253 33.5156 322.617L31.9609 319.773L30.4297 321.977C30.2474 322.253 29.8177 322.945 29.1406 324.055C28.7344 324.018 28.4323 324 28.2344 324C28.0312 324 27.7005 324.018 27.2422 324.055Z" fill="white"/>
</g>
<g clip-path="url(#clip2)">
<path d="M4.5239 355.767L26.5588 372.809L48.5981 355.761L48.6158 474.088L26.5108 491.195L4.54168 474.204L4.5239 355.767Z" fill="#4F686C" className="epoch"
                onClick={() => this.changeEpoch(2)}/>
<path d="M48.1454 473.942L26.5107 490.685L5.01202 474.051L4.9944 356.641L25.9003 372.809L26.5589 373.326L27.2268 372.809L48.1278 356.634L48.1454 473.942ZM49.0862 474.241L49.0683 354.88L26.5587 372.3L4.05338 354.887L4.07131 474.357L26.5108 491.712L49.0862 474.241Z" fill="#10363C"/>
<path d="M15.2666 429.062V428.323C15.7939 428.288 16.1162 428.235 16.2334 428.165C16.3564 428.095 16.6348 427.781 17.0684 427.225L20.0303 423.278C19.1045 421.655 18.3633 420.41 17.8066 419.543C17.2559 418.676 16.8428 418.151 16.5674 417.97C16.4209 417.87 16.2422 417.82 16.0312 417.82C15.9023 417.82 15.7119 417.841 15.46 417.882L15.3809 417.161L18.668 416.502C19.0254 416.76 19.3125 417.032 19.5293 417.319C19.752 417.606 20.165 418.307 20.7686 419.42L21.7002 421.134L23.8535 418.005C24.2227 417.472 24.498 417.047 24.6797 416.73C25.002 416.777 25.2979 416.801 25.5674 416.801C25.9014 416.801 26.291 416.777 26.7363 416.73V417.451C26.2441 417.486 25.9395 417.539 25.8223 417.609C25.6641 417.697 25.3828 418.002 24.9785 418.523L22.2539 422.083L22.834 423.138C23.8418 424.966 24.5479 426.196 24.9521 426.829C25.4912 427.661 25.8105 428.112 25.9102 428.183C26.0156 428.253 26.291 428.3 26.7363 428.323V429.062C26.0684 429.021 25.4326 429 24.8291 429C24.29 429 23.7627 429.021 23.2471 429.062C23.0244 428.698 22.7168 428.159 22.3242 427.444L20.5752 424.245L18.8525 426.724C18.6475 427.034 18.1641 427.813 17.4023 429.062C16.9453 429.021 16.6055 429 16.3828 429C16.1543 429 15.7822 429.021 15.2666 429.062ZM27.2725 429.062V428.323C27.7998 428.288 28.1221 428.235 28.2393 428.165C28.3623 428.095 28.6406 427.781 29.0742 427.225L32.0361 423.278C31.1104 421.655 30.3691 420.41 29.8125 419.543C29.2617 418.676 28.8486 418.151 28.5732 417.97C28.4268 417.87 28.248 417.82 28.0371 417.82C27.9082 417.82 27.7178 417.841 27.4658 417.882L27.3867 417.161L30.6738 416.502C31.0312 416.76 31.3184 417.032 31.5352 417.319C31.7578 417.606 32.1709 418.307 32.7744 419.42L33.7061 421.134L35.8594 418.005C36.2285 417.472 36.5039 417.047 36.6855 416.73C37.0078 416.777 37.3037 416.801 37.5732 416.801C37.9072 416.801 38.2969 416.777 38.7422 416.73V417.451C38.25 417.486 37.9453 417.539 37.8281 417.609C37.6699 417.697 37.3887 418.002 36.9844 418.523L34.2598 422.083L34.8398 423.138C35.8477 424.966 36.5537 426.196 36.958 426.829C37.4971 427.661 37.8164 428.112 37.916 428.183C38.0215 428.253 38.2969 428.3 38.7422 428.323V429.062C38.0742 429.021 37.4385 429 36.835 429C36.2959 429 35.7686 429.021 35.2529 429.062C35.0303 428.698 34.7227 428.159 34.3301 427.444L32.5811 424.245L30.8584 426.724C30.6533 427.034 30.1699 427.813 29.4082 429.062C28.9512 429.021 28.6113 429 28.3887 429C28.1602 429 27.7881 429.021 27.2725 429.062Z" fill="white"/>
</g>
<g clip-path="url(#clip3)">
<path d="M4.54166 474.062L26.5766 491.104L48.6158 474.055L48.6336 592.382L26.5285 609.489L4.55944 592.498L4.54166 474.062Z" fill="#4F686C" className="epoch"
                onClick={() => this.changeEpoch(3)}/>
<path d="M48.1632 592.237L26.5284 608.98L5.02978 592.345L5.01216 474.935L25.918 491.104L26.5767 491.62L27.2445 491.104L48.1456 474.928L48.1632 592.237ZM49.104 592.535L49.0861 473.174L26.5765 490.594L4.07114 473.181L4.08908 592.651L26.5286 610.006L49.104 592.535Z" fill="#10363C"/>
<path d="M8.57031 546.055V545.398C9.03906 545.367 9.32552 545.32 9.42969 545.258C9.53906 545.195 9.78646 544.917 10.1719 544.422L12.8047 540.914C11.9818 539.471 11.3229 538.365 10.8281 537.594C10.3385 536.823 9.97135 536.357 9.72656 536.195C9.59635 536.107 9.4375 536.062 9.25 536.062C9.13542 536.062 8.96615 536.081 8.74219 536.117L8.67188 535.477L11.5938 534.891C11.9115 535.12 12.1667 535.362 12.3594 535.617C12.5573 535.872 12.9245 536.495 13.4609 537.484L14.2891 539.008L16.2031 536.227C16.5312 535.753 16.776 535.375 16.9375 535.094C17.224 535.135 17.487 535.156 17.7266 535.156C18.0234 535.156 18.3698 535.135 18.7656 535.094V535.734C18.3281 535.766 18.0573 535.812 17.9531 535.875C17.8125 535.953 17.5625 536.224 17.2031 536.688L14.7812 539.852L15.2969 540.789C16.1927 542.414 16.8203 543.508 17.1797 544.07C17.6589 544.81 17.9427 545.211 18.0312 545.273C18.125 545.336 18.3698 545.378 18.7656 545.398V546.055C18.1719 546.018 17.6068 546 17.0703 546C16.5911 546 16.1224 546.018 15.6641 546.055C15.4661 545.732 15.1927 545.253 14.8438 544.617L13.2891 541.773L11.7578 543.977C11.5755 544.253 11.1458 544.945 10.4688 546.055C10.0625 546.018 9.76042 546 9.5625 546C9.35938 546 9.02865 546.018 8.57031 546.055ZM19.2422 546.055V545.398C19.7109 545.367 19.9974 545.32 20.1016 545.258C20.2109 545.195 20.4583 544.917 20.8438 544.422L23.4766 540.914C22.6536 539.471 21.9948 538.365 21.5 537.594C21.0104 536.823 20.6432 536.357 20.3984 536.195C20.2682 536.107 20.1094 536.062 19.9219 536.062C19.8073 536.062 19.638 536.081 19.4141 536.117L19.3438 535.477L22.2656 534.891C22.5833 535.12 22.8385 535.362 23.0312 535.617C23.2292 535.872 23.5964 536.495 24.1328 537.484L24.9609 539.008L26.875 536.227C27.2031 535.753 27.4479 535.375 27.6094 535.094C27.8958 535.135 28.1589 535.156 28.3984 535.156C28.6953 535.156 29.0417 535.135 29.4375 535.094V535.734C29 535.766 28.7292 535.812 28.625 535.875C28.4844 535.953 28.2344 536.224 27.875 536.688L25.4531 539.852L25.9688 540.789C26.8646 542.414 27.4922 543.508 27.8516 544.07C28.3307 544.81 28.6146 545.211 28.7031 545.273C28.7969 545.336 29.0417 545.378 29.4375 545.398V546.055C28.8438 546.018 28.2786 546 27.7422 546C27.263 546 26.7943 546.018 26.3359 546.055C26.138 545.732 25.8646 545.253 25.5156 544.617L23.9609 541.773L22.4297 543.977C22.2474 544.253 21.8177 544.945 21.1406 546.055C20.7344 546.018 20.4323 546 20.2344 546C20.0312 546 19.7005 546.018 19.2422 546.055ZM32.1406 543.039L32.0312 542.891C32.2396 542.443 32.4115 541.898 32.5469 541.258C33.5104 541.294 35.2995 541.312 37.9141 541.312C40.6224 541.312 42.388 541.294 43.2109 541.258L43.3203 541.414C43.1276 541.888 42.9453 542.43 42.7734 543.039C41.9141 543.008 40.1458 542.992 37.4688 542.992C34.6927 542.992 32.9167 543.008 32.1406 543.039ZM13.4531 565.055V564.398C13.9219 564.367 14.2083 564.32 14.3125 564.258C14.4219 564.195 14.6693 563.917 15.0547 563.422L17.6875 559.914C16.8646 558.471 16.2057 557.365 15.7109 556.594C15.2214 555.823 14.8542 555.357 14.6094 555.195C14.4792 555.107 14.3203 555.062 14.1328 555.062C14.0182 555.062 13.849 555.081 13.625 555.117L13.5547 554.477L16.4766 553.891C16.7943 554.12 17.0495 554.362 17.2422 554.617C17.4401 554.872 17.8073 555.495 18.3438 556.484L19.1719 558.008L21.0859 555.227C21.4141 554.753 21.6589 554.375 21.8203 554.094C22.1068 554.135 22.3698 554.156 22.6094 554.156C22.9062 554.156 23.2526 554.135 23.6484 554.094V554.734C23.2109 554.766 22.9401 554.812 22.8359 554.875C22.6953 554.953 22.4453 555.224 22.0859 555.688L19.6641 558.852L20.1797 559.789C21.0755 561.414 21.7031 562.508 22.0625 563.07C22.5417 563.81 22.8255 564.211 22.9141 564.273C23.0078 564.336 23.2526 564.378 23.6484 564.398V565.055C23.0547 565.018 22.4896 565 21.9531 565C21.474 565 21.0052 565.018 20.5469 565.055C20.349 564.732 20.0755 564.253 19.7266 563.617L18.1719 560.773L16.6406 562.977C16.4583 563.253 16.0286 563.945 15.3516 565.055C14.9453 565.018 14.6432 565 14.4453 565C14.2422 565 13.9115 565.018 13.4531 565.055ZM24.125 565.055V564.398C24.5938 564.367 24.8802 564.32 24.9844 564.258C25.0938 564.195 25.3411 563.917 25.7266 563.422L28.3594 559.914C27.5365 558.471 26.8776 557.365 26.3828 556.594C25.8932 555.823 25.526 555.357 25.2812 555.195C25.151 555.107 24.9922 555.062 24.8047 555.062C24.6901 555.062 24.5208 555.081 24.2969 555.117L24.2266 554.477L27.1484 553.891C27.4661 554.12 27.7214 554.362 27.9141 554.617C28.112 554.872 28.4792 555.495 29.0156 556.484L29.8438 558.008L31.7578 555.227C32.0859 554.753 32.3307 554.375 32.4922 554.094C32.7786 554.135 33.0417 554.156 33.2812 554.156C33.5781 554.156 33.9245 554.135 34.3203 554.094V554.734C33.8828 554.766 33.612 554.812 33.5078 554.875C33.3672 554.953 33.1172 555.224 32.7578 555.688L30.3359 558.852L30.8516 559.789C31.7474 561.414 32.375 562.508 32.7344 563.07C33.2135 563.81 33.4974 564.211 33.5859 564.273C33.6797 564.336 33.9245 564.378 34.3203 564.398V565.055C33.7266 565.018 33.1615 565 32.625 565C32.1458 565 31.6771 565.018 31.2188 565.055C31.0208 564.732 30.7474 564.253 30.3984 563.617L28.8438 560.773L27.3125 562.977C27.1302 563.253 26.7005 563.945 26.0234 565.055C25.6172 565.018 25.3151 565 25.1172 565C24.9141 565 24.5833 565.018 24.125 565.055ZM35.1172 565.055V564.398C35.8359 564.362 36.2422 564.302 36.3359 564.219C36.4297 564.135 36.487 563.93 36.5078 563.602C36.5443 562.914 36.5625 561.633 36.5625 559.758C36.5625 559.039 36.5521 557.997 36.5312 556.633C36.5208 555.701 36.5 555.19 36.4688 555.102C36.4375 555.008 36.3828 554.94 36.3047 554.898C36.1901 554.841 35.7943 554.792 35.1172 554.75V554.094C36.1901 554.135 37.0104 554.156 37.5781 554.156C38.5573 554.156 39.4427 554.135 40.2344 554.094V554.75C39.526 554.792 39.125 554.849 39.0312 554.922C38.9427 554.99 38.8854 555.151 38.8594 555.406C38.8125 555.906 38.7891 556.919 38.7891 558.445C38.7891 560.477 38.7969 561.893 38.8125 562.695C38.8281 563.492 38.875 563.966 38.9531 564.117C38.9844 564.185 39.0495 564.24 39.1484 564.281C39.2526 564.318 39.6146 564.357 40.2344 564.398V565.055L39.3125 565.031C38.7292 565.01 38.2083 565 37.75 565L35.1172 565.055Z" fill="white"/>
</g>
<g clip-path="url(#clip4)">
<path d="M4.47062 0.887322L26.5056 17.9293L48.5448 0.880707L48.5626 119.208L26.4575 136.315L4.4884 119.324L4.47062 0.887322Z" fill="#4F686C" className="epoch"
                onClick={() => this.changeEpoch(4)}/>
<path d="M48.0921 119.062L26.4574 135.805L4.95874 119.171L4.94111 1.76062L25.847 17.9294L26.5056 18.4461L27.1735 17.9292L48.0745 1.75414L48.0921 119.062ZM49.0329 119.361L49.015 0L26.5055 17.4198L4.0001 0.00675668L4.01803 119.477L26.4575 136.832L49.0329 119.361Z" fill="#10363C"/>
<path d="M7.25098 75.0615V74.3232C7.77832 74.2881 8.10059 74.2354 8.21777 74.165C8.34082 74.0947 8.61914 73.7812 9.05273 73.2246L12.0146 69.2783C11.0889 67.6553 10.3477 66.4102 9.79102 65.543C9.24023 64.6758 8.82715 64.1514 8.55176 63.9697C8.40527 63.8701 8.22656 63.8203 8.01562 63.8203C7.88672 63.8203 7.69629 63.8408 7.44434 63.8818L7.36523 63.1611L10.6523 62.502C11.0098 62.7598 11.2969 63.0322 11.5137 63.3193C11.7363 63.6064 12.1494 64.3066 12.7529 65.4199L13.6846 67.1338L15.8379 64.0049C16.207 63.4717 16.4824 63.0469 16.6641 62.7305C16.9863 62.7773 17.2822 62.8008 17.5518 62.8008C17.8857 62.8008 18.2754 62.7773 18.7207 62.7305V63.4512C18.2285 63.4863 17.9238 63.5391 17.8066 63.6094C17.6484 63.6973 17.3672 64.002 16.9629 64.5234L14.2383 68.083L14.8184 69.1377C15.8262 70.9658 16.5322 72.1963 16.9365 72.8291C17.4756 73.6611 17.7949 74.1123 17.8945 74.1826C18 74.2529 18.2754 74.2998 18.7207 74.3232V75.0615C18.0527 75.0205 17.417 75 16.8135 75C16.2744 75 15.7471 75.0205 15.2314 75.0615C15.0088 74.6982 14.7012 74.1592 14.3086 73.4443L12.5596 70.2451L10.8369 72.7236C10.6318 73.0342 10.1484 73.8135 9.38672 75.0615C8.92969 75.0205 8.58984 75 8.36719 75C8.13867 75 7.7666 75.0205 7.25098 75.0615ZM19.1074 63.4688V62.7305C20.2207 62.7715 21.2402 62.792 22.166 62.792C22.9863 62.792 23.8857 62.7715 24.8643 62.7305V63.4688C24.1846 63.5156 23.7773 63.5713 23.6426 63.6357C23.5137 63.6943 23.4492 63.791 23.4492 63.9258C23.4492 64.0957 23.6953 64.7871 24.1875 66L26.6748 72.0645L28.6611 67.1602C29.3936 65.3555 29.7598 64.2715 29.7598 63.9082C29.7598 63.7734 29.6953 63.6768 29.5664 63.6182C29.4434 63.5596 29.0186 63.5098 28.292 63.4688V62.7305C29.3643 62.7715 30.082 62.792 30.4453 62.792C30.8262 62.792 31.5059 62.7715 32.4844 62.7305V63.4688C31.8926 63.5273 31.5498 63.5977 31.4561 63.6797C31.3154 63.791 30.9756 64.4648 30.4365 65.7012L27.7383 72.1699C27.1875 73.4473 26.7949 74.4697 26.5605 75.2373H25.2773L22.166 67.7842C21.4512 66.085 20.9502 64.9336 20.6631 64.3301C20.499 63.9727 20.3555 63.7559 20.2324 63.6797C20.1152 63.5977 19.7402 63.5273 19.1074 63.4688ZM33.627 75.0615V74.3232C34.4355 74.2822 34.8926 74.2148 34.998 74.1211C35.1035 74.0273 35.168 73.7959 35.1914 73.4268C35.2324 72.6533 35.2529 71.2119 35.2529 69.1025C35.2529 68.2939 35.2412 67.1221 35.2178 65.5869C35.2061 64.5381 35.1826 63.9639 35.1475 63.8643C35.1123 63.7588 35.0508 63.6826 34.9629 63.6357C34.834 63.5713 34.3887 63.5156 33.627 63.4688V62.7305C34.834 62.7773 35.7568 62.8008 36.3955 62.8008C37.4971 62.8008 38.4932 62.7773 39.3838 62.7305V63.4688C38.5869 63.5156 38.1357 63.5801 38.0303 63.6621C37.9307 63.7383 37.8662 63.9199 37.8369 64.207C37.7842 64.7695 37.7578 65.9092 37.7578 67.626C37.7578 69.9111 37.7666 71.5049 37.7842 72.4072C37.8018 73.3037 37.8545 73.8369 37.9424 74.0068C37.9775 74.083 38.0508 74.1445 38.1621 74.1914C38.2793 74.2324 38.6865 74.2764 39.3838 74.3232V75.0615L38.3467 75.0352C37.6904 75.0117 37.1045 75 36.5889 75L33.627 75.0615ZM40.6406 75.0615V74.3232C41.4492 74.2822 41.9062 74.2148 42.0117 74.1211C42.1172 74.0273 42.1816 73.7959 42.2051 73.4268C42.2461 72.6533 42.2666 71.2119 42.2666 69.1025C42.2666 68.2939 42.2549 67.1221 42.2314 65.5869C42.2197 64.5381 42.1963 63.9639 42.1611 63.8643C42.126 63.7588 42.0645 63.6826 41.9766 63.6357C41.8477 63.5713 41.4023 63.5156 40.6406 63.4688V62.7305C41.8477 62.7773 42.7705 62.8008 43.4092 62.8008C44.5107 62.8008 45.5068 62.7773 46.3975 62.7305V63.4688C45.6006 63.5156 45.1494 63.5801 45.0439 63.6621C44.9443 63.7383 44.8799 63.9199 44.8506 64.207C44.7979 64.7695 44.7715 65.9092 44.7715 67.626C44.7715 69.9111 44.7803 71.5049 44.7979 72.4072C44.8154 73.3037 44.8682 73.8369 44.9561 74.0068C44.9912 74.083 45.0645 74.1445 45.1758 74.1914C45.293 74.2324 45.7002 74.2764 46.3975 74.3232V75.0615L45.3604 75.0352C44.7041 75.0117 44.1182 75 43.6025 75L40.6406 75.0615Z" fill="white"/>
</g>
</g>
<defs>
<filter id="filter0_d" x="6.10352e-05" y="0" width="53.1065" height="618.009" filterUnits="userSpaceOnUse" color-interpolation-filters="sRGB">
<feFlood flood-opacity="0" result="BackgroundImageFix"/>
<feColorMatrix in="SourceAlpha" type="matrix" values="0 0 0 0 0 0 0 0 0 0 0 0 0 0 0 0 0 0 127 0"/>
<feOffset dy="4"/>
<feGaussianBlur stdDeviation="2"/>
<feColorMatrix type="matrix" values="0 0 0 0 0 0 0 0 0 0 0 0 0 0 0 0 0 0 0.25 0"/>
<feBlend mode="normal" in2="BackgroundImageFix" result="effect1_dropShadow"/>
<feBlend mode="normal" in="SourceGraphic" in2="effect1_dropShadow" result="shape"/>
</filter>
<clipPath id="clip0">
<rect width="136.828" height="45.0149" fill="white" transform="translate(49.0328 118.293) rotate(89.9914)"/>
</clipPath>
<clipPath id="clip1">
<rect width="136.828" height="45.0149" fill="white" transform="translate(49.0505 236.588) rotate(89.9914)"/>
</clipPath>
<clipPath id="clip2">
<rect width="136.828" height="45.0149" fill="white" transform="translate(49.0683 354.88) rotate(89.9914)"/>
</clipPath>
<clipPath id="clip3">
<rect width="136.828" height="45.0149" fill="white" transform="translate(49.0861 473.174) rotate(89.9914)"/>
</clipPath>
<clipPath id="clip4">
<rect width="136.828" height="45.0149" fill="white" transform="translate(49.015) rotate(89.9914)"/>
</clipPath>
</defs>
</svg>
